<?xml version="1.0" encoding="UTF-8"?>
<svg xmlns="http://www.w3.org/2000/svg" viewBox="0 0 64 64" aria-label="Symphosys favicon">
  <g fill="#040707" transform="translate(8.25 2.5) scale(0.325) translate(-374 -222)">
    <path d="M0 0 C-0.28875 0.845625 -0.5775 1.69125 -0.875 2.5625 C-1.24625 3.696875 -1.6175 4.83125 -2 6 C-2.37125 7.11375 -2.7425 8.2275 -3.125 9.375 C-5.73861388 20.20282891 -2.54462261 29.66517269 3 39 C5.14380218 41.39915598 5.14380218 41.39915598 7 43 C7 43.66 7 44.32 7 45 C7.53496094 45.24492187 8.06992187 45.48984375 8.62109375 45.7421875 C11.60074134 47.31763335 14.28039254 49.22162732 17.0625 51.125 C30.52908381 59.94505225 45.73194609 64.66803423 60.92700195 69.64233398 C82.9009617 76.86752239 107.3329988 85.02615232 120 106 C120.48597656 106.80179687 120.97195313 107.60359375 121.47265625 108.4296875 C126.61033751 118.53331695 126.83288027 131.50650345 124.16015625 142.43359375 C123.24518155 144.75728422 122.25348082 146.84529391 121 149 C120.32870775 150.33101049 119.6607077 151.66370379 119 153 C118.34 153 117.68 153 117 153 C116.76152344 153.73863281 116.52304687 154.47726562 116.27734375 155.23828125 C114.81065556 158.40937773 113.21329172 159.93715629 110.5625 162.1875 C109.78003906 162.86167969 108.99757813 163.53585937 108.19140625 164.23046875 C103.52317881 168 103.52317881 168 100 168 C100.28875 167.29875 100.5775 166.5975 100.875 165.875 C104.50604983 156.59565043 105.94632483 146.78833345 102.15234375 137.2421875 C90.50642133 114.58198591 65.71354042 106.82969682 43.0625 99.5 C5.98593968 87.47978864 5.98593968 87.47978864 -8 76 C-8 75.34 -8 74.68 -8 74 C-8.61875 73.7525 -9.2375 73.505 -9.875 73.25 C-12.35068687 71.79371361 -12.95125002 70.62187494 -14 68 C-14.66 68 -15.32 68 -16 68 C-24.42856465 57.17668997 -25.86057787 45.34650584 -25 32 C-23.33205086 19.06824618 -15.0989978 9.32024402 -5.26953125 1.46875 C-3 0 -3 0 0 0 Z " transform="translate(401,222)"/>
    <path d="M0 0 C0.14695312 0.556875 0.29390625 1.11375 0.4453125 1.6875 C3.11137116 10.7582283 7.56867167 16.75403396 15.6328125 21.75 C28.31002516 28.44423771 46.01444002 29.16211947 59.80859375 25.68359375 C60.53175781 25.45800781 61.25492187 25.23242188 62 25 C62.83660156 24.74347656 63.67320312 24.48695313 64.53515625 24.22265625 C70.70835685 22.05319058 75.63019613 18.91745553 80 14 C80.33 13.01 80.66 12.02 81 11 C82.828125 11.1640625 82.828125 11.1640625 85 12 C89.45597016 19.01228988 91.2825744 26.81125579 90 35 C87.90979404 43.47083468 82.18638472 48.47987931 75.1640625 53.24609375 C73.15395998 54.37403337 71.16064681 55.19470069 69 56 C68.07058594 56.37125 67.14117187 56.7425 66.18359375 57.125 C48.50925644 63.02327247 26.47764694 62.24971346 9 56 C8.06800781 55.68804687 7.13601563 55.37609375 6.17578125 55.0546875 C-11.76876651 48.51440822 -24.84799284 36.42205767 -32.96875 19.2734375 C-33.3090625 18.52320313 -33.649375 17.77296875 -34 17 C-31.84196068 13.76294101 -30.8789736 13.22755761 -27.45703125 11.66015625 C-26.54759766 11.23669922 -25.63816406 10.81324219 -24.70117188 10.37695312 C-23.74791016 9.94318359 -22.79464844 9.50941406 -21.8125 9.0625 C-19.94279961 8.20184427 -18.074284 7.33860949 -16.20703125 6.47265625 C-15.31322754 6.05902832 -14.41942383 5.64540039 -13.49853516 5.21923828 C-11.27803674 4.13567671 -9.18542476 2.96316377 -7.07421875 1.68359375 C-4 0 -4 0 0 0 Z " transform="translate(408,343)"/>
  </g>
</svg>
