<?xml version="1.0" encoding="UTF-8"?>
<svg version="1.1" xmlns="http://www.w3.org/2000/svg" width="2560" height="526">
<path d="M0 0 C11.88 0 23.76 0 36 0 C36 62.04 36 124.08 36 188 C24.12 188 12.24 188 0 188 C0 162.26 0 136.52 0 110 C-32.34 110 -64.68 110 -98 110 C-98 135.74 -98 161.48 -98 188 C-110.21 188 -122.42 188 -135 188 C-135 151.7 -135 115.4 -135 78 C-90.45 78 -45.9 78 0 78 C0 52.26 0 26.52 0 0 Z " fill="#040707" transform="translate(1331,212)"/>
<path d="M0 0 C0.66 0 1.32 0 2 0 C0.5714848 4.80500567 -1.46000867 9.1577604 -3.68359375 13.6328125 C-7.28522764 22.84530038 -8.48505508 31.65618412 -8.375 41.5 C-8.38660156 42.53769531 -8.39820313 43.57539063 -8.41015625 44.64453125 C-8.36986957 55.42793203 -6.07863835 64.96597796 -0.9375 74.4375 C-0.23656686 75.76862991 0.4626962 77.10064079 1.16015625 78.43359375 C1.48129395 79.04315918 1.80243164 79.65272461 2.13330078 80.28076172 C3.23558748 82.46732592 4.14689464 84.70589802 5 87 C5.66 87 6.32 87 7 87 C10 90.46153846 10 90.46153846 10 93 C10.66 93 11.32 93 12 93 C13.4375 94.49609375 13.4375 94.49609375 15 96.4375 C17.14525044 99.15188238 17.14525044 99.15188238 20 101 C20 101.66 20 102.32 20 103 C20.54398438 103.25523437 21.08796875 103.51046875 21.6484375 103.7734375 C24.42998157 105.2242761 26.9926936 106.91774184 29.625 108.625 C52.70949751 123.0963287 80.42016704 129.13771266 107.39453125 123.62109375 C108.25433594 123.41613281 109.11414062 123.21117187 110 123 C110.87011719 122.80535156 111.74023438 122.61070312 112.63671875 122.41015625 C125.07409719 119.34166434 136.57646373 114.45241806 147 107 C147.76699219 106.45601563 148.53398438 105.91203125 149.32421875 105.3515625 C166.75171018 92.39499819 178.96280102 74.20210225 182.5625 52.62890625 C184.65234294 35.2944054 182.00989521 16.58888983 172 2 C172 1.34 172 0.68 172 0 C173.72265625 0.125 173.72265625 0.125 176 1 C177.64598127 2.97871093 179.04108202 4.85810781 180.4375 7 C180.83291992 7.59232422 181.22833984 8.18464844 181.63574219 8.79492188 C195.26050445 29.41678883 201.25095494 52.38151149 197.25 77 C196.86562324 78.67440837 196.44810172 80.34150859 196 82 C195.75507812 82.99515625 195.51015625 83.9903125 195.2578125 85.015625 C191.61082124 98.37716821 184.97922277 109.54746795 176 120 C175.47019531 120.74894531 174.94039062 121.49789062 174.39453125 122.26953125 C173.93433594 122.84058594 173.47414063 123.41164063 173 124 C172.34 124 171.68 124 171 124 C171 124.66 171 125.32 171 126 C167.28054101 129.91327696 163.28139679 133.51460715 158 135 C158 135.66 158 136.32 158 137 C137.60446932 152.04255087 112.39250209 158.44262873 87.4375 158.375 C86.68366028 158.37445618 85.92982056 158.37391235 85.15313721 158.37335205 C73.68233333 158.33528758 62.93685331 157.67263615 52 154 C51.32952637 153.78569336 50.65905273 153.57138672 49.96826172 153.35058594 C21.41334122 144.07749193 -1.43796356 126.06442686 -15.3125 99.125 C-25.81325486 77.7177503 -26.22439922 54.17303079 -19.3203125 31.54296875 C-15.09850571 20.21403752 -8.57322748 8.57322748 0 0 Z " fill="#040707" transform="translate(1416,245)"/>
<path d="M0 0 C1.77206192 0.00015919 3.54412846 0.00585754 5.31616211 0.01586914 C6.24698105 0.01728409 7.17779999 0.01869904 8.13682556 0.02015686 C11.12241777 0.02577367 14.10793615 0.03832899 17.09350586 0.05102539 C19.11238499 0.05603823 21.13126529 0.06060151 23.15014648 0.06469727 C28.11046158 0.07574856 33.07072118 0.09302444 38.03100586 0.11352539 C35.88557049 4.52627942 33.72334046 8.82157028 31.00756836 12.91821289 C30.46100586 13.7496582 29.91444336 14.58110352 29.35131836 15.43774414 C28.79186523 16.27950195 28.23241211 17.12125977 27.65600586 17.98852539 C26.54221458 19.67222389 25.43023155 21.35711997 24.32006836 23.04321289 C23.77640625 23.86789063 23.23274414 24.69256836 22.67260742 25.54223633 C20.4307742 29.05368598 18.35869171 32.65732933 16.3059082 36.28198242 C15.67483154 37.18859619 15.67483154 37.18859619 15.03100586 38.11352539 C14.37100586 38.11352539 13.71100586 38.11352539 13.03100586 38.11352539 C12.88211914 38.95270508 12.88211914 38.95270508 12.73022461 39.80883789 C11.87144431 42.63945452 10.53590608 44.55637667 8.84350586 46.98852539 C4.81995114 52.89022056 0.97343779 58.88912045 -2.84399414 64.92602539 C-7.26476618 71.90233652 -11.73328415 78.83630828 -16.3425293 85.68945312 C-19.97569366 91.09728431 -23.51586887 96.5631155 -27.04003906 102.04248047 C-27.46518799 102.70272217 -27.89033691 103.36296387 -28.32836914 104.04321289 C-28.72640244 104.67917389 -29.12443573 105.31513489 -29.53453064 105.97036743 C-30.96899414 108.11352539 -30.96899414 108.11352539 -32.51107788 109.90284729 C-38.34376886 117.09583548 -37.83026795 124.74551889 -37.77368164 133.52368164 C-37.78494795 135.10267655 -37.79883562 136.68165472 -37.81521606 138.26060486 C-37.85108167 142.38874742 -37.85164976 146.51614681 -37.84454346 150.64440918 C-37.8434655 155.61233143 -37.88679935 160.58004614 -37.9225769 165.54781342 C-37.97183572 173.07010051 -37.96513121 180.59046193 -37.96899414 188.11352539 C-50.17899414 188.11352539 -62.38899414 188.11352539 -74.96899414 188.11352539 C-74.96899414 164.68352539 -74.96899414 141.25352539 -74.96899414 117.11352539 C-75.62899414 117.11352539 -76.28899414 117.11352539 -76.96899414 117.11352539 C-78.40094009 115.07598563 -79.69788741 113.06065572 -80.96899414 110.92602539 C-81.32477539 110.34788086 -81.68055664 109.76973633 -82.04711914 109.17407227 C-84.02151482 105.91410925 -85.6729482 102.69790243 -86.96899414 99.11352539 C-86.2071582 99.01555664 -85.44532227 98.91758789 -84.66040039 98.81665039 C-75.40028203 97.47560953 -67.37723397 95.9080212 -61.42602539 88.21899414 C-58.46342121 83.93791196 -55.70279554 79.54312854 -52.96899414 75.11352539 C-51.8888927 73.40314684 -50.80552824 71.69482476 -49.71899414 69.98852539 C-48.85274414 68.62727539 -48.85274414 68.62727539 -47.96899414 67.23852539 C-44.62065241 62.00674144 -41.24185875 56.79472517 -37.86352539 51.58227539 C-35.96125361 48.64723203 -34.06285008 45.70975256 -32.16821289 42.76977539 C-27.37636973 35.33861544 -22.54210226 27.94079968 -17.61743164 20.59692383 C-14.25981305 15.5793893 -10.98627279 10.51069293 -7.74780273 5.41552734 C-4.37564617 0.12515688 -4.37564617 0.12515688 0 0 Z " fill="#040707" transform="translate(1968.968994140625,211.886474609375)"/>
<path d="M0 0 C1.97761102 0.07533911 3.95549825 0.14376338 5.93359375 0.20507812 C10.75427531 0.36947757 15.56157385 0.62756139 20.375 0.9375 C19.31624926 4.34062738 18.36597846 6.95103231 16.375 9.9375 C15.715 9.9375 15.055 9.9375 14.375 9.9375 C14.11074219 10.65164062 13.84648438 11.36578125 13.57421875 12.1015625 C12.32987855 15.04420416 10.87215422 17.59771506 9.1875 20.3125 C8.85363281 20.85068359 8.51976562 21.38886719 8.17578125 21.94335938 C3.85704219 28.84884318 -0.63474145 35.64499898 -5.10498047 42.45288086 C-9.29677927 48.84936094 -13.34795969 55.30017938 -17.20703125 61.90234375 C-17.90892578 62.90974609 -17.90892578 62.90974609 -18.625 63.9375 C-19.285 63.9375 -19.945 63.9375 -20.625 63.9375 C-20.88152344 64.64003906 -21.13804687 65.34257812 -21.40234375 66.06640625 C-22.74444847 69.217994 -24.37361247 71.96911553 -26.1875 74.875 C-26.7136792 75.71925537 -26.7136792 75.71925537 -27.25048828 76.58056641 C-28.36943759 78.36999528 -29.49577553 80.15453956 -30.625 81.9375 C-30.9854541 82.50710449 -31.3459082 83.07670898 -31.71728516 83.66357422 C-36.42573843 91.08379103 -41.24365169 98.42675588 -46.17529297 105.70068359 C-48.85651412 109.6822915 -51.28535686 113.74541629 -53.625 117.9375 C-54.285 117.9375 -54.945 117.9375 -55.625 117.9375 C-55.625 141.3675 -55.625 164.7975 -55.625 188.9375 C-67.835 188.9375 -80.045 188.9375 -92.625 188.9375 C-92.58117187 183.98621094 -92.53734375 179.03492188 -92.4921875 173.93359375 C-92.48668581 170.76607026 -92.48416646 167.59908877 -92.4921875 164.43164062 C-92.50459677 159.42163248 -92.50693732 154.41326 -92.44335938 149.40356445 C-92.39269963 145.35675196 -92.39216658 141.31255449 -92.42404556 137.26558113 C-92.42774993 135.73444974 -92.41444599 134.20316402 -92.38250351 132.67236137 C-92.16598157 121.52542532 -94.58937876 114.80151694 -101.38186646 105.91419983 C-103.625 102.9375 -103.625 102.9375 -104.625 99.9375 C-103.779375 99.83953125 -102.93375 99.7415625 -102.0625 99.640625 C-95.05573084 98.71700543 -89.76562111 97.41332327 -83.625 93.9375 C-82.965 93.9375 -82.305 93.9375 -81.625 93.9375 C-81.625 93.2775 -81.625 92.6175 -81.625 91.9375 C-80.965 91.9375 -80.305 91.9375 -79.625 91.9375 C-79.39554688 91.27105469 -79.16609375 90.60460937 -78.9296875 89.91796875 C-77.24965342 86.08004658 -75.05309844 82.74022529 -72.75 79.25 C-72.2645874 78.50669434 -71.7791748 77.76338867 -71.27905273 76.99755859 C-67.29120022 70.9063006 -63.233877 64.86164664 -59.18041992 58.81396484 C-55.03308191 52.60264007 -51.03177491 46.30610812 -47.05932617 39.98193359 C-43.73855552 34.69585321 -40.3896519 29.42969969 -37 24.1875 C-36.40819946 23.26988892 -36.40819946 23.26988892 -35.80444336 22.33374023 C-34.95861634 21.02830935 -34.08985626 19.73756592 -33.20361328 18.45922852 C-31.88933545 16.3597581 -30.86662066 14.35205205 -29.82373047 12.11694336 C-22.91599584 -1.5723799 -14.21437575 -0.94280233 0 0 Z " fill="#040707" transform="translate(721.625,211.0625)"/>
<path d="M0 0 C7.17058185 2.95447136 11.6128276 10.68910002 14.8125 17.4375 C15.57097324 19.27987249 16.30129535 21.13414098 17 23 C17.3196875 23.81597656 17.639375 24.63195312 17.96875 25.47265625 C22.45409405 38.90792291 21.41433064 55.7021828 15.3828125 68.40625 C12.55472507 73.79539514 9.58232609 79.07154316 6 84 C5.34 84 4.68 84 4 84 C3.67 84.99 3.34 85.98 3 87 C2.34 87 1.68 87 1 87 C0.78859375 87.56976563 0.5771875 88.13953125 0.359375 88.7265625 C-5.86551976 99.13716236 -22.76641591 104.82670978 -33.89770508 107.63354492 C-45.45224921 110.33384149 -56.67740338 110.53791852 -68.5 110.5 C-84.84032477 109.86565448 -84.84032477 109.86565448 -100 115 C-100.6175415 115.35529785 -101.23508301 115.7105957 -101.87133789 116.07666016 C-104.17680527 117.50580364 -105.76961885 118.53923771 -107 121 C-107.66 121 -108.32 121 -109 121 C-109.27690674 121.56162842 -109.55381348 122.12325684 -109.83911133 122.7019043 C-110.61289831 124.23369333 -111.42041788 125.74890243 -112.26049805 127.24536133 C-116.46570498 135.3252042 -116.77152026 142.70306275 -116.8125 151.6875 C-116.874375 156.410625 -116.93625 161.13375 -117 166 C-129.21 166 -141.42 166 -154 166 C-154.061875 161.50375 -154.12375 157.0075 -154.1875 152.375 C-154.21481201 150.98845215 -154.24212402 149.6019043 -154.27026367 148.17333984 C-154.40498399 127.62921604 -147.77560042 110.51552635 -133.70703125 95.48828125 C-118.84722169 81.82926439 -101.51737622 76.67806481 -81.55078125 76.76171875 C-79.38085315 76.74629559 -77.21093115 76.7299917 -75.04101562 76.71289062 C-71.68223349 76.69651109 -68.32390636 76.68747587 -64.96508789 76.69458008 C-48.6081274 76.70780122 -33.60668919 76.23027244 -19.625 66.6875 C-14.13123845 63 -14.13123845 63 -12 63 C-11.67 62.01 -11.34 61.02 -11 60 C-10.34 60 -9.68 60 -9 60 C-8.72800781 59.4121875 -8.45601562 58.824375 -8.17578125 58.21875 C-7.02494379 56.04707001 -5.7540818 54.38485831 -4.1875 52.5 C3.6061995 42.29942271 5.88081318 30.57436746 5 18 C3.85808546 11.86035557 2.12082226 5.87304626 0 0 Z " fill="#040707" transform="translate(1151,234)"/>
<path d="M0 0 C6.13306501 3.2018207 10.46962018 8.30780964 13.0625 14.6875 C13.95508389 17.89030103 14.43231495 20.22197384 14.125 23.5 C13.54492188 23.65855469 12.96484375 23.81710938 12.3671875 23.98046875 C11.58601562 24.21378906 10.80484375 24.44710937 10 24.6875 C9.23429688 24.90792969 8.46859375 25.12835938 7.6796875 25.35546875 C1.27515675 28.22477687 -1.90881222 32.46608149 -4.8125 38.6875 C-5.14677002 39.37875977 -5.48104004 40.07001953 -5.82543945 40.78222656 C-9.33027837 48.18087118 -12.22014615 55.81424814 -15.10205078 63.47119141 C-17.59779337 70.02192447 -20.37378288 76.4499442 -23.3125 82.8125 C-26.42729044 89.60313009 -29.13501836 96.55263121 -31.875 103.5 C-33.2251287 106.91828039 -34.58033587 110.33450763 -35.9375 113.75 C-36.41183472 114.95450806 -36.41183472 114.95450806 -36.89575195 116.18334961 C-38.58322959 120.42866075 -40.36130397 124.60849409 -42.2734375 128.7578125 C-45.20123535 135.13109787 -47.82001123 141.61939684 -50.4375 148.125 C-62.22804287 177.38241313 -62.22804287 177.38241313 -73.9375 184.3125 C-82.44015012 187.52971896 -93.32724753 187.49320252 -101.875 184.5 C-107.61337551 181.85705644 -112.49905784 177.89639239 -115.875 172.5 C-115.875 171.51 -115.875 170.52 -115.875 169.5 C-115.07835937 169.40203125 -114.28171875 169.3040625 -113.4609375 169.203125 C-104.91027558 168.11702794 -104.91027558 168.11702794 -97.875 163.5 C-95.81198909 160.33399316 -94.36225624 156.96745577 -92.875 153.5 C-92.62089355 152.91492676 -92.36678711 152.32985352 -92.10498047 151.72705078 C-89.62935137 146.0119259 -87.25192955 140.25670873 -84.875 134.5 C-84.35712941 133.24738217 -83.83922386 131.99477879 -83.32128906 130.7421875 C-76.67242975 114.65639502 -70.0620992 98.55498892 -63.5144043 82.42773438 C-61.42067269 77.27418778 -59.31648139 72.12508473 -57.19140625 66.984375 C-56.7951001 66.02499023 -56.39879395 65.06560547 -55.99047852 64.07714844 C-55.03394149 61.86721085 -54.01021151 59.7469048 -52.875 57.625 C-51.06428841 54.1267052 -49.78820135 50.53351472 -48.5 46.8125 C-46.46897706 40.97408544 -44.07614299 35.45101589 -41.41796875 29.875 C-39.17612593 24.97132354 -37.27585958 19.95142291 -35.3671875 14.91015625 C-33.81263933 11.35748464 -32.21547802 8.57833956 -29.875 5.5 C-29.215 5.5 -28.555 5.5 -27.875 5.5 C-27.875 4.84 -27.875 4.18 -27.875 3.5 C-19.09088389 -2.05203727 -9.94624214 -3.77855536 0 0 Z " fill="#040707" transform="translate(957.875,213.5)"/>
<path d="M0 0 C0 0.66 0 1.32 0 2 C0.71929688 2.25265625 1.43859375 2.5053125 2.1796875 2.765625 C14.54288687 8.17666517 25.48204021 22.13779515 31.01171875 34.22265625 C33.18856159 40.34018693 34.61180275 46.66464883 36 53 C36.1959375 53.86238281 36.391875 54.72476563 36.59375 55.61328125 C39.8650621 74.83223984 32.76267405 92.52728046 22 108 C20.41537685 110.12742225 18.78648168 112.02546761 17 114 C16.34 114 15.68 114 15 114 C15.82203495 110.2447949 17.18791253 106.73324053 18.5 103.125 C23.56606182 88.3704782 22.79069323 74.21251502 16.5 59.96484375 C14.45095491 55.91477806 12.07853943 52.14141574 9.55078125 48.375 C8 46 8 46 6.98046875 43.75 C6.05955756 41.6459241 6.05955756 41.6459241 3 41 C3 40.34 3 39.68 3 39 C2.47664063 38.76796875 1.95328125 38.5359375 1.4140625 38.296875 C-1.14660038 36.92124381 -3.42044027 35.27701663 -5.76977539 33.57226562 C-21.14533786 22.61371235 -41.03980958 16.90319399 -59.9296875 19.55078125 C-61.2466229 19.79501171 -62.56175578 20.04914286 -63.875 20.3125 C-64.92469971 20.51987793 -64.92469971 20.51987793 -65.99560547 20.73144531 C-86.32772306 24.85516886 -102.8324506 33.78974965 -115 51 C-115.33 51.66 -115.66 52.32 -116 53 C-116.66 53 -117.32 53 -118 53 C-118.0825 53.639375 -118.165 54.27875 -118.25 54.9375 C-119.08852765 58.36148789 -120.42815334 61.26475649 -121.96484375 64.42578125 C-124.53315415 70.81263616 -125.38910491 76.86666119 -125.375 83.6875 C-125.37411377 84.46770508 -125.37322754 85.24791016 -125.37231445 86.05175781 C-125.20374833 94.39963139 -123.13239259 101.78610724 -119.36328125 109.234375 C-118 112 -118 112 -118 114 C-127.26595326 110.11692868 -131.70196255 99.27988828 -135.5546875 90.61328125 C-142.02011886 74.44970284 -142.18905185 54.32596689 -135.875 38.0625 C-132.91611653 31.39397158 -129.30735886 24.89528144 -125 19 C-124.34 19 -123.68 19 -123 19 C-122.61328125 18.12601563 -122.61328125 18.12601563 -122.21875 17.234375 C-120.90165983 14.8197097 -119.44911616 13.18259823 -117.5 11.25 C-116.58734375 10.32960937 -116.58734375 10.32960937 -115.65625 9.390625 C-114 8 -114 8 -112 8 C-112 7.34 -112 6.68 -112 6 C-109.67847329 4.30385171 -107.37712683 2.76051075 -104.9375 1.25 C-104.21522217 0.80261475 -103.49294434 0.35522949 -102.7487793 -0.10571289 C-69.98904644 -19.86005665 -33.0121628 -16.88216933 0 0 Z " fill="#040707" transform="translate(1555,222)"/>
<path d="M0 0 C-0.45375 0.763125 -0.9075 1.52625 -1.375 2.3125 C-5.28171603 10.33253722 -5.46227103 17.71390619 -3.00390625 26.19140625 C-1.64246304 30.00026878 0.08739343 33.43859466 2 37 C2 37.66 2 38.32 2 39 C3.485 39.495 3.485 39.495 5 40 C5 40.66 5 41.32 5 42 C5.66 42 6.32 42 7 42 C7 42.66 7 43.32 7 44 C7.99 44.33 8.98 44.66 10 45 C10 45.66 10 46.32 10 47 C11.05767578 47.37898438 11.05767578 47.37898438 12.13671875 47.765625 C15.30048733 49.12954161 17.94085388 50.847857 20.8125 52.75 C25.5291462 55.68711965 30.12750784 58.02341237 35.3671875 59.90234375 C36.05447433 60.15449142 36.74176117 60.4066391 37.44987488 60.66642761 C43.8894513 63.00770712 50.38647871 65.1762635 56.88842773 67.33666992 C109.18928058 84.73583902 109.18928058 84.73583902 120.875 107.125 C125.909337 117.5809307 126.83707705 130.16136701 123.9375 141.4375 C120.2255847 151.62368618 111.94870568 161.03419621 103 167 C102.01 167 101.02 167 100 167 C101.33333333 163 102.66666667 159 104 155 C105.16459012 145.45036101 102.81590597 136.54711272 97.35546875 128.609375 C93.38953152 123.91828898 88.54821038 118.77410519 83 116 C83 115.34 83 114.68 83 114 C82.30132813 113.89945312 81.60265625 113.79890625 80.8828125 113.6953125 C77.51646816 112.88337579 74.92587934 111.51438818 71.875 109.875 C61.43552237 104.47685622 50.36706258 100.69565196 39.1875 97.1328125 C2.50718178 85.41222795 2.50718178 85.41222795 -11 72 C-11.74378906 71.28199219 -12.48757813 70.56398438 -13.25390625 69.82421875 C-21.89801916 60.86172231 -25.34374268 50.26884224 -26.3125 38.0625 C-25.949261 26.77938849 -20.84050983 15.0524155 -13 7 C-12.34 7 -11.68 7 -11 7 C-10.67 6.01 -10.34 5.02 -10 4 C-8.4765625 2.578125 -8.4765625 2.578125 -6.625 1.25 C-6.01914063 0.80140625 -5.41328125 0.3528125 -4.7890625 -0.109375 C-3 -1 -3 -1 0 0 Z " fill="#040707" transform="translate(1666,223)"/>
<path d="M0 0 C-0.28875 0.845625 -0.5775 1.69125 -0.875 2.5625 C-1.24625 3.696875 -1.6175 4.83125 -2 6 C-2.37125 7.11375 -2.7425 8.2275 -3.125 9.375 C-5.73861388 20.20282891 -2.54462261 29.66517269 3 39 C5.14380218 41.39915598 5.14380218 41.39915598 7 43 C7 43.66 7 44.32 7 45 C7.53496094 45.24492187 8.06992187 45.48984375 8.62109375 45.7421875 C11.60074134 47.31763335 14.28039254 49.22162732 17.0625 51.125 C30.52908381 59.94505225 45.73194609 64.66803423 60.92700195 69.64233398 C82.9009617 76.86752239 107.3329988 85.02615232 120 106 C120.48597656 106.80179687 120.97195313 107.60359375 121.47265625 108.4296875 C126.61033751 118.53331695 126.83288027 131.50650345 124.16015625 142.43359375 C123.24518155 144.75728422 122.25348082 146.84529391 121 149 C120.32870775 150.33101049 119.6607077 151.66370379 119 153 C118.34 153 117.68 153 117 153 C116.76152344 153.73863281 116.52304687 154.47726562 116.27734375 155.23828125 C114.81065556 158.40937773 113.21329172 159.93715629 110.5625 162.1875 C109.78003906 162.86167969 108.99757813 163.53585937 108.19140625 164.23046875 C103.52317881 168 103.52317881 168 100 168 C100.28875 167.29875 100.5775 166.5975 100.875 165.875 C104.50604983 156.59565043 105.94632483 146.78833345 102.15234375 137.2421875 C90.50642133 114.58198591 65.71354042 106.82969682 43.0625 99.5 C5.98593968 87.47978864 5.98593968 87.47978864 -8 76 C-8 75.34 -8 74.68 -8 74 C-8.61875 73.7525 -9.2375 73.505 -9.875 73.25 C-12.35068687 71.79371361 -12.95125002 70.62187494 -14 68 C-14.66 68 -15.32 68 -16 68 C-24.42856465 57.17668997 -25.86057787 45.34650584 -25 32 C-23.33205086 19.06824618 -15.0989978 9.32024402 -5.26953125 1.46875 C-3 0 -3 0 0 0 Z " fill="#040707" transform="translate(401,222)"/>
<path d="M0 0 C0.99 0.33 1.98 0.66 3 1 C2.525625 1.7425 2.05125 2.485 1.5625 3.25 C-2.46449152 10.33750508 -2.10153337 20.08955003 -0.3515625 27.890625 C4.65763423 41.50536483 15.57173533 49.54828508 28 56 C28.7115625 56.38381836 29.423125 56.76763672 30.15625 57.16308594 C37.05546892 60.78104107 44.15792102 63.2456893 51.5625 65.625 C52.72974609 66.0065625 53.89699219 66.388125 55.09960938 66.78125 C57.37058344 67.52331477 59.64236625 68.26291013 61.91503906 68.99975586 C78.8112781 74.47806318 97.10914326 80.48075295 111 92 C111 92.66 111 93.32 111 94 C111.99 94.33 112.98 94.66 114 95 C114 95.66 114 96.32 114 97 C114.66 97 115.32 97 116 97 C125.73803191 108.24732347 128.79107571 119.28182833 128 134 C126.53573684 146.61358122 119.50856442 156.6837218 109.93359375 164.73828125 C105.53257042 168 105.53257042 168 103 168 C103.20496094 167.47792969 103.40992187 166.95585937 103.62109375 166.41796875 C106.84081893 157.62149469 108.25955866 148.95483149 105 140 C104.76539062 139.29359375 104.53078125 138.5871875 104.2890625 137.859375 C98.90867262 123.74202173 85.84690975 115.59557937 72.73828125 109.48046875 C67.27643445 107.04930359 61.72459559 105.03401945 56.0625 103.125 C54.04166 102.431009 52.02082679 101.73699821 50 101.04296875 C47.08545448 100.04916111 44.17013951 99.05769133 41.25390625 98.06884766 C25.15977707 92.60150697 9.7780965 87.22245869 -4 77 C-4.99580078 76.29810547 -4.99580078 76.29810547 -6.01171875 75.58203125 C-14.04158753 69.42880596 -19.75394964 59.80156256 -22 50 C-22.41499375 46.32127457 -22.46560203 42.69924854 -22.4375 39 C-22.45748047 38.06671875 -22.47746094 37.1334375 -22.49804688 36.171875 C-22.49344403 29.58059699 -21.15482311 24.76793135 -18 19 C-17.54238281 18.15308594 -17.08476563 17.30617187 -16.61328125 16.43359375 C-12.21042615 9.67726054 -6.70449846 4.46966564 0 0 Z " fill="#040707" transform="translate(2056,222)"/>
<path d="M0 0 C11.72722552 6.82035733 15.1194525 21.19950816 19.9375 33.125 C20.42049561 34.31432129 20.90349121 35.50364258 21.40112305 36.72900391 C23.65870742 42.29449468 25.89922947 47.8659885 28.10327148 53.45288086 C30.05505967 58.39853073 32.10657049 63.25342943 34.375 68.0625 C39.53988446 79.05651915 43.84221277 90.45140847 48.125 101.8125 C49.77612949 106.14879968 51.60161068 110.35710146 53.5625 114.5625 C54.54214171 116.66644554 55.52133389 118.77060047 56.5 120.875 C56.93054688 121.79667969 57.36109375 122.71835937 57.8046875 123.66796875 C60.61830252 130.08107057 60.97668932 133.89755712 58.48046875 140.62109375 C57.227475 143.74363373 55.88693858 146.80974918 54.5 149.875 C53.85611328 151.32326172 53.85611328 151.32326172 53.19921875 152.80078125 C50.07012088 159.49491941 50.07012088 159.49491941 47.625 161.125 C45.32905657 161.93533297 43.49449577 162.20785103 41.0625 162.25 C40.32128906 162.27835938 39.58007812 162.30671875 38.81640625 162.3359375 C35.41693157 161.65948217 33.93089086 160.34478511 31.5 157.875 C30.00879474 155.29370602 28.94884804 152.58913093 27.875 149.8125 C27.54435547 148.99394531 27.21371094 148.17539062 26.87304688 147.33203125 C26.1396327 145.51391494 25.41241645 143.69328985 24.69042969 141.87060547 C22.96185683 137.52081282 21.18934963 133.18921354 19.42041016 128.85571289 C18.46767385 126.52103403 17.51684974 124.185574 16.56787109 121.84936523 C13.92260027 115.3386684 11.24489385 108.84429339 8.5 102.375 C5.25961608 94.73791259 2.12101428 87.061588 -1 79.375 C-7.18837548 64.13719436 -7.18837548 64.13719436 -13.59130859 48.98876953 C-14.20210264 47.56795952 -14.80650396 46.14438586 -15.40478516 44.71826172 C-20.45435928 32.41070175 -20.45435928 32.41070175 -30.94140625 24.8671875 C-33.11414214 24.11234029 -35.27392791 23.45044721 -37.5 22.875 C-36.82060826 13.36351557 -33.90949192 7.59986139 -26.6953125 1.3203125 C-18.92425493 -3.79586419 -8.29389671 -3.86138006 0 0 Z " fill="#040707" transform="translate(804.5,214.125)"/>
<path d="M0 0 C14.02185143 -0.0678999 28.04359284 -0.12288786 42.06557178 -0.15543652 C48.57722416 -0.1710618 55.08875776 -0.1922429 61.6003418 -0.22631836 C67.88974353 -0.25902344 74.17903134 -0.27687659 80.46851158 -0.28463173 C82.86256388 -0.29015523 85.25661026 -0.3009411 87.65061378 -0.31719017 C91.01566445 -0.33911233 94.38025023 -0.34196072 97.74536133 -0.34057617 C98.72504379 -0.351362 99.70472626 -0.36214783 100.71409607 -0.3732605 C115.37263125 -0.30841654 128.12994437 5.28542273 139 15 C144 20.11682243 144 20.11682243 144 23 C144.66 23 145.32 23 146 23 C152.30496627 36.22206518 154.09523661 47.71083014 149.26953125 61.94921875 C146.50259065 68.59838986 142.45784952 74.30018514 137 79 C136.34 79 135.68 79 135 79 C135.23396484 78.12601563 135.23396484 78.12601563 135.47265625 77.234375 C137.92800046 66.8926603 137.30520551 58.24132572 132 49 C132 48.34 132 47.68 132 47 C131.01 46.67 130.02 46.34 129 46 C127.3125 44.5625 127.3125 44.5625 126 43 C126 42.34 126 41.68 126 41 C125.34 40.7525 124.68 40.505 124 40.25 C121.02558352 39.0106598 118.2656564 37.56523486 115.453125 36 C108.31421161 33.0898697 101.05478382 32.69866921 93.43139648 32.68115234 C91.90786812 32.66608391 91.90786812 32.66608391 90.3535614 32.65071106 C87.02607747 32.6200396 83.69867341 32.60288865 80.37109375 32.5859375 C78.05224427 32.56721295 75.73340151 32.54763859 73.41456604 32.5272522 C67.33360772 32.47606105 61.25262735 32.43636574 55.17156982 32.39910889 C48.95742392 32.35898748 42.74336875 32.30793233 36.52929688 32.2578125 C24.35292218 32.16120734 12.17650961 32.07776477 0 32 C0 21.44 0 10.88 0 0 Z " fill="#040707" transform="translate(997,212)"/>
<path d="M0 0 C0 51.15 0 102.3 0 155 C-12.21 155 -24.42 155 -37 155 C-37.64174095 135.10157404 -37.64174095 135.10157404 -37.78125 126.33398438 C-37.87535615 120.44861857 -37.98400929 114.56738125 -38.20703125 108.68530273 C-39.24176947 80.63574649 -35.32519134 59.39463768 -22.96899414 34.13967896 C-20.4503522 28.94253522 -18.35523404 23.60072031 -16.27050781 18.21800232 C-10.87703171 4.55715077 -10.87703171 4.55715077 -5 1 C-2 0 -2 0 0 0 Z " fill="#040707" transform="translate(972,245)"/>
<path d="M0 0 C5.853693 2.13884937 9.13028085 4.05828499 11.93652344 9.97436523 C12.92043076 12.34225012 13.84302325 14.72660673 14.75 17.125 C15.44893542 18.92379391 16.14949778 20.72195639 16.8515625 22.51953125 C17.20637695 23.4317041 17.56119141 24.34387695 17.92675781 25.28369141 C19.58877151 29.49014372 21.35328767 33.65132408 23.125 37.8125 C26.10784776 44.83622661 28.98248956 51.89398879 31.7734375 58.99609375 C32.83064725 61.84807695 32.83064725 61.84807695 34.06246948 63.64874268 C35.49116551 67.23180684 35.26045699 70.82448795 35.22705078 74.62402344 C35.22734283 75.49267532 35.22763489 76.36132721 35.22793579 77.25630188 C35.22654377 80.12409495 35.21098853 82.99162738 35.1953125 85.859375 C35.19158192 87.84905861 35.18873516 89.83874407 35.18673706 91.82843018 C35.17910418 97.06289754 35.1594586 102.29725376 35.1373291 107.53167725 C35.11686327 112.87396745 35.10773376 118.21627563 35.09765625 123.55859375 C35.07621242 134.03911917 35.04103303 144.51953295 35 155 C23.12 155 11.24 155 -1 155 C-1.02254568 134.93816382 -1.04097839 114.87633784 -1.05181217 94.81449223 C-1.05697547 85.50010284 -1.06401881 76.18572187 -1.07543945 66.87133789 C-1.08538526 58.7559464 -1.09185318 50.640561 -1.09408849 42.52516359 C-1.09539578 38.22540212 -1.09848274 33.92565808 -1.10573006 29.62590218 C-1.11248865 25.58357158 -1.11461729 21.54126568 -1.11310768 17.49892998 C-1.11338408 16.01095826 -1.11539016 14.52298577 -1.11920547 13.03501892 C-1.12414014 11.01224862 -1.12239816 8.98946524 -1.12025452 6.96669006 C-1.12117631 5.8319629 -1.1220981 4.69723574 -1.12304783 3.5281229 C-1 1 -1 1 0 0 Z " fill="#040707" transform="translate(768,245)"/>
<path d="M0 0 C0.14695312 0.556875 0.29390625 1.11375 0.4453125 1.6875 C3.11137116 10.7582283 7.56867167 16.75403396 15.6328125 21.75 C28.31002516 28.44423771 46.01444002 29.16211947 59.80859375 25.68359375 C60.53175781 25.45800781 61.25492187 25.23242188 62 25 C62.83660156 24.74347656 63.67320312 24.48695313 64.53515625 24.22265625 C70.70835685 22.05319058 75.63019613 18.91745553 80 14 C80.33 13.01 80.66 12.02 81 11 C82.828125 11.1640625 82.828125 11.1640625 85 12 C89.45597016 19.01228988 91.2825744 26.81125579 90 35 C87.90979404 43.47083468 82.18638472 48.47987931 75.1640625 53.24609375 C73.15395998 54.37403337 71.16064681 55.19470069 69 56 C68.07058594 56.37125 67.14117187 56.7425 66.18359375 57.125 C48.50925644 63.02327247 26.47764694 62.24971346 9 56 C8.06800781 55.68804687 7.13601563 55.37609375 6.17578125 55.0546875 C-11.76876651 48.51440822 -24.84799284 36.42205767 -32.96875 19.2734375 C-33.3090625 18.52320313 -33.649375 17.77296875 -34 17 C-31.84196068 13.76294101 -30.8789736 13.22755761 -27.45703125 11.66015625 C-26.54759766 11.23669922 -25.63816406 10.81324219 -24.70117188 10.37695312 C-23.74791016 9.94318359 -22.79464844 9.50941406 -21.8125 9.0625 C-19.94279961 8.20184427 -18.074284 7.33860949 -16.20703125 6.47265625 C-15.31322754 6.05902832 -14.41942383 5.64540039 -13.49853516 5.21923828 C-11.27803674 4.13567671 -9.18542476 2.96316377 -7.07421875 1.68359375 C-4 0 -4 0 0 0 Z " fill="#040707" transform="translate(408,343)"/>
<path d="M0 0 C0.679487 0.00553894 1.358974 0.01107788 2.05905151 0.01678467 C12.09800786 0.11273258 21.15059418 0.71884878 30.5625 4.5 C31.76390625 4.94730469 32.9653125 5.39460937 34.203125 5.85546875 C41.73660123 8.84481623 48.19786771 12.50003661 54.5625 17.5 C55.18511719 17.95890625 55.80773438 18.4178125 56.44921875 18.890625 C63.98226314 24.78163499 70.13143907 33.61043305 73.5625 42.5 C73.109375 44.48046875 73.109375 44.48046875 71.5625 46.5 C69.10953529 47.94601977 66.75815773 49.18270785 64.1875 50.375 C62.73679376 51.06992559 61.2862747 51.76524203 59.8359375 52.4609375 C59.1150293 52.8022168 58.39412109 53.14349609 57.65136719 53.49511719 C55.74035388 54.41444056 53.85561864 55.36891728 51.9765625 56.3515625 C50.93242188 56.89554687 49.88828125 57.43953125 48.8125 58 C47.88953125 58.4846875 46.9665625 58.969375 46.015625 59.46875 C43.5625 60.5 43.5625 60.5 39.5625 60.5 C39.42714844 59.8709375 39.29179688 59.241875 39.15234375 58.59375 C37.14465051 50.61106549 33.88098171 45.49913454 27.08203125 40.77734375 C12.42330841 32.16825256 -4.26377828 30.93841973 -20.53466797 34.97900391 C-28.5780466 37.18128387 -35.15328957 39.93044109 -40.4375 46.5 C-40.7675 47.49 -41.0975 48.48 -41.4375 49.5 C-42.4275 49.5 -43.4175 49.5 -44.4375 49.5 C-49.44434249 41.15526251 -51.43823128 34.35135472 -50.4375 24.5 C-48.43976474 16.69676561 -42.03052851 11.56841153 -35.56640625 7.25 C-24.49403752 1.15424431 -12.39776693 -0.17646429 0 0 Z " fill="#040707" transform="translate(1719.4375,208.5)"/>
<path d="M0 0 C9.63627708 7.50747861 17.96859933 16.55047888 20.75 28.6875 C18.09219056 30.78683587 15.52396905 32.3948258 12.44921875 33.80859375 C11.63646484 34.18693359 10.82371094 34.56527344 9.98632812 34.95507812 C9.14521484 35.34115234 8.30410156 35.72722656 7.4375 36.125 C0.51024641 39.30785773 0.51024641 39.30785773 -6.16796875 42.97265625 C-9.25 44.6875 -9.25 44.6875 -12.25 44.6875 C-16.25 34.6875 -16.25 34.6875 -17.26953125 31.921875 C-18.50636918 29.10326426 -19.47517143 28.87671225 -22.25 27.6875 C-23.00667969 27.06230469 -23.76335937 26.43710938 -24.54296875 25.79296875 C-35.19824814 17.50552923 -49.2147263 15.92482426 -62.24609375 17.2734375 C-72.24914587 18.65227173 -84.80371447 21.20091274 -91.640625 29.34375 C-92.58061248 30.74711159 -93.42679827 32.21259691 -94.25 33.6875 C-96.80872472 32.68975828 -98.03313716 32.04411889 -99.48046875 29.6640625 C-99.79628906 28.88804687 -100.11210937 28.11203125 -100.4375 27.3125 C-100.92283203 26.15621094 -100.92283203 26.15621094 -101.41796875 24.9765625 C-103.86647948 18.24028415 -104.24658435 12.41418978 -101.3125 5.8125 C-100.6404592 4.42987843 -99.95557547 3.05331276 -99.25 1.6875 C-98.92 1.0275 -98.59 0.3675 -98.25 -0.3125 C-97.59 -0.3125 -96.93 -0.3125 -96.25 -0.3125 C-96.04375 -0.89 -95.8375 -1.4675 -95.625 -2.0625 C-91.22261 -9.2664109 -80.00528092 -12.4302349 -72.26171875 -14.43359375 C-47.33935491 -19.6315153 -20.62103912 -14.76599937 0 0 Z " fill="#040707" transform="translate(507.25,224.3125)"/>
<path d="M0 0 C1.1953125 2.36328125 1.1953125 2.36328125 2.125 5.3125 C3.73243677 11.60143109 3.73243677 11.60143109 7.89453125 16.09765625 C8.58933594 16.39542969 9.28414062 16.69320313 10 17 C11.23605587 17.80198057 12.46508895 18.61487118 13.6875 19.4375 C26.54642719 27.55514678 43.97094049 27.90926725 58.54077148 24.92285156 C65.93428056 23.1479094 72.48932748 20.39843886 78 15 C78.51949219 14.10152344 79.03898437 13.20304687 79.57421875 12.27734375 C80.04472656 11.52582031 80.51523438 10.77429688 81 10 C81.99 10 82.98 10 84 10 C88.96028059 18.52105345 90.24094899 26.20419024 89 36 C87.96839889 39.0992308 86.79945599 41.24458302 85 44 C84.34 44 83.68 44 83 44 C83 44.66 83 45.32 83 46 C76.22099191 52.55304115 66.94370948 55.67777368 58 58 C57.42137207 58.17200928 56.84274414 58.34401855 56.24658203 58.52124023 C41.48699183 61.6665952 23.15060718 60.1955479 9 55 C7.79730469 54.56429687 6.59460937 54.12859375 5.35546875 53.6796875 C-2.68466661 50.49150815 -10.26490366 46.47689153 -17 41 C-17 40.34 -17 39.68 -17 39 C-17.61875 38.7525 -18.2375 38.505 -18.875 38.25 C-21.35068687 36.79371361 -21.95125002 35.62187494 -23 33 C-23.66 33 -24.32 33 -25 33 C-26.45833318 30.96310519 -27.77227051 28.95211133 -29.0625 26.8125 C-29.42666016 26.23435547 -29.79082031 25.65621094 -30.16601562 25.06054688 C-32.19816057 21.73624323 -33.5252092 18.87867557 -34 15 C-28.21992415 11.25977368 -22.29020088 7.9323608 -16.1875 4.75 C-15.34251953 4.30398438 -14.49753906 3.85796875 -13.62695312 3.3984375 C-3.80580562 -1.75005921 -3.80580562 -1.75005921 0 0 Z " fill="#040707" transform="translate(1673,344)"/>
<path d="M0 0 C0.50615298 1.26839526 1.00469099 2.53983102 1.5 3.8125 C1.7784375 4.52019531 2.056875 5.22789062 2.34375 5.95703125 C3 8 3 8 3 11 C3.66 11 4.32 11 5 11 C5.495 11.86625 5.99 12.7325 6.5 13.625 C10.79685577 20.40697757 19.63561527 23.66794483 27 26 C32.27757082 27.13259344 37.4407131 27.18348821 42.8125 27.1875 C44.08963867 27.20586914 44.08963867 27.20586914 45.39257812 27.22460938 C56.1359469 27.2491563 65.85337579 24.64938554 75 19 C75.66 19 76.32 19 77 19 C77 18.34 77 17.68 77 17 C78.31200404 15.64567325 79.64631404 14.31266518 81 13 C81.33 12.34 81.66 11.68 82 11 C84.98051212 12.0277628 85.93976944 12.90270448 87.625 15.625 C91.04140573 24.01072315 92.16240461 31.40117571 88.5625 40 C82.97383188 49.99972402 73.61039803 54.84726837 63 58 C61.26556641 58.54527344 61.26556641 58.54527344 59.49609375 59.1015625 C38.05117085 64.27889203 13.06038211 60.14340878 -5.76171875 49.03515625 C-16.42353828 42.33454349 -24.87537563 34.08604489 -31 23 C-31.37382813 22.34644531 -31.74765625 21.69289063 -32.1328125 21.01953125 C-33 19 -33 19 -33 15 C-27.3420392 11.98331474 -21.6746021 8.98525272 -16 6 C-15.36690918 5.66500488 -14.73381836 5.33000977 -14.08154297 4.98486328 C-12.45476986 4.12701069 -10.82136594 3.2817653 -9.1875 2.4375 C-7.81658203 1.72400391 -7.81658203 1.72400391 -6.41796875 0.99609375 C-4 0 -4 0 0 0 Z " fill="#040707" transform="translate(2065,343)"/>
<path d="M0 0 C1.0194722 0.00264359 1.0194722 0.00264359 2.05953979 0.00534058 C13.29763765 0.0701748 23.46299516 1.14104859 33.875 5.5 C34.51695312 5.7676416 35.15890625 6.0352832 35.8203125 6.31103516 C51.75259816 13.19271826 66.20721378 25.10835888 72.875 41.5 C72.66723633 43.59619141 72.66723633 43.59619141 71.875 45.5 C69.4498008 47.14066366 67.14005777 48.52016753 64.5625 49.875 C63.84352539 50.26421631 63.12455078 50.65343262 62.38378906 51.05444336 C60.22170328 52.21777602 58.04969094 53.36044379 55.875 54.5 C55.25898926 54.82919434 54.64297852 55.15838867 54.00830078 55.49755859 C44.6429874 60.5 44.6429874 60.5 39.875 60.5 C39.65585938 59.78714844 39.43671875 59.07429688 39.2109375 58.33984375 C35.78970053 48.00659551 31.63082844 42.7369063 21.859375 37.78515625 C5.3253457 30.66513578 -12.26813072 31.45237016 -28.8125 37.875 C-34.79508322 40.57445828 -38.37846235 44.17597281 -42.125 49.5 C-45.125 48.5 -45.125 48.5 -46.51171875 46.453125 C-50.36067781 38.45468756 -51.76790651 30.9203057 -49.53125 22.1796875 C-46.03917583 13.93451237 -37.84870152 8.15769612 -29.90332031 4.61254883 C-20.10729977 0.68983656 -10.46978082 -0.05098395 0 0 Z " fill="#040707" transform="translate(2112.125,208.5)"/>
<path d="M0 0 C5.81603183 -0.34803636 11.62593644 -0.60089934 17.44995117 -0.76904297 C19.42661104 -0.8391476 21.40255233 -0.9344791 23.37670898 -1.05615234 C39.2107457 -2.00707355 39.2107457 -2.00707355 43.66873169 1.20077515 C46.58342694 4.39766557 48.32732707 8.13472489 50.07418823 12.0567627 C51.57046716 15.19738495 53.54917472 17.97008743 55.53515625 20.81640625 C56.29178502 21.94066595 57.04634595 23.06632009 57.79882812 24.19335938 C58.93177277 25.88042717 60.06550144 27.56695805 61.20043945 29.25268555 C66.00951638 36.40075546 70.63676497 43.62592646 75.1184082 50.98461914 C76.82195562 53.71467158 78.59231092 56.36326876 80.44140625 58.99609375 C80.96154297 59.73923828 81.48167969 60.48238281 82.01757812 61.24804688 C83.0721193 62.7425357 84.13775527 64.22924187 85.21289062 65.70898438 C89.00486841 71.18308158 89.00486841 71.18308158 88.98046875 75.27734375 C86.78767114 81.36650682 83.54693411 86.48243203 78 90 C71.97100276 92.62130315 66.69838834 92.78337291 60.5625 90.5 C59.386875 90.005 58.21125 89.51 57 89 C57 88.34 57 87.68 57 87 C56.01 86.67 55.02 86.34 54 86 C52.68139648 84.26586914 52.68139648 84.26586914 51.37109375 82.03515625 C50.89349609 81.23529297 50.41589844 80.43542969 49.92382812 79.61132812 C49.43333984 78.77021484 48.94285156 77.92910156 48.4375 77.0625 C47.45947548 75.40610645 46.47911001 73.75109225 45.49609375 72.09765625 C45.06482178 71.36039307 44.6335498 70.62312988 44.18920898 69.86352539 C43.00693621 67.86314288 43.00693621 67.86314288 41 66 C41 65.01 41 64.02 41 63 C40.34 63 39.68 63 39 63 C37.81879442 61.30104814 36.73457934 59.53474337 35.6875 57.75 C32.15135474 51.82831354 28.45979639 46.02399091 24.6875 40.25 C24.13199463 39.39833252 23.57648926 38.54666504 23.00415039 37.66918945 C21.88218405 35.94931713 20.75987153 34.22967058 19.63720703 32.51025391 C15.80728003 26.63800376 12.0017703 20.74997333 8.20166016 14.85839844 C7.05982307 13.09251791 5.91157335 11.33097896 4.76171875 9.5703125 C4.11847656 8.57773438 3.47523437 7.58515625 2.8125 6.5625 C2.26207031 5.71816406 1.71164062 4.87382812 1.14453125 4.00390625 C0 2 0 2 0 0 Z " fill="#040707" transform="translate(1818,212)"/>
<path d="M0 0 C36.52905812 -2.84698894 36.52905812 -2.84698894 45.05419922 1.58935547 C49.2682253 5.55196847 51.36958098 10.34992627 53.20263672 15.76513672 C54.28175958 18.78972051 55.92612689 21.24567974 57.75 23.875 C58.53503906 25.12603516 58.53503906 25.12603516 59.3359375 26.40234375 C61.93132892 30.45383505 64.66669107 34.41058879 67.3984375 38.37109375 C68.80861335 40.68584581 69.5624372 42.3558705 70 45 C70.66 45 71.32 45 72 45 C73.26378312 46.82445429 74.43372834 48.71406939 75.5625 50.625 C77.79762501 54.40396342 80.05311981 58.12951011 82.5625 61.734375 C82.97943115 62.3432959 83.3963623 62.9522168 83.82592773 63.57958984 C84.63332477 64.75186976 85.45525524 65.91430803 86.29321289 67.06494141 C88.52085305 70.34772829 89.00706167 71.8911416 88.74609375 75.9140625 C88.49988281 76.93242187 88.25367188 77.95078125 88 79 C87.34 79 86.68 79 86 79 C85.938125 79.53625 85.87625 80.0725 85.8125 80.625 C84.11510393 85.58661929 81.11556172 88.36854997 76.6875 90.875 C70.99379698 92.61206194 66.98496904 92.63922732 61.3125 90.8125 C55.11868095 87.4234292 51.78373642 82.45158631 48.25 76.5625 C47.37317052 75.1310356 46.49555094 73.7000549 45.6171875 72.26953125 C45.17987305 71.55361816 44.74255859 70.83770508 44.29199219 70.10009766 C42.35893643 66.95796885 40.37345429 63.85082465 38.375 60.75 C38.00246094 60.17145264 37.62992188 59.59290527 37.24609375 58.99682617 C34.30648649 54.44623678 31.29981926 49.94242399 28.28515625 45.44140625 C24.24430257 39.37921027 20.2973612 33.25485849 16.3359375 27.140625 C14.16467207 23.78951645 11.98240606 20.44607162 9.7890625 17.109375 C9.28673096 16.34197998 8.78439941 15.57458496 8.2668457 14.78393555 C7.32350845 13.34303817 6.37692195 11.90426078 5.42651367 10.46801758 C5.00345947 9.81986084 4.58040527 9.1717041 4.14453125 8.50390625 C3.77690674 7.94517822 3.40928223 7.3864502 3.03051758 6.81079102 C1.78297044 4.61864291 0.89419266 2.35535438 0 0 Z " fill="#040707" transform="translate(553,212)"/>
<path d="M0 0 C12.21 0 24.42 0 37 0 C37 23.43 37 46.86 37 71 C24.79 71 12.58 71 0 71 C0 47.57 0 24.14 0 0 Z " fill="#040707" transform="translate(1196,212)"/>
</svg>
